# AST/ASF file generated using VICON BodyLanguage
# -----------------------------------------------
:version 1.10
:name VICON
:units
  mass 1.0
  length 0.45
  angle deg
:documentation
   .ast/.asf automatically generated from VICON data using
   VICON BodyBuilder and BodyLanguage model FoxedUp or BRILLIANT.MOD
:root
   order TX TY TZ RX RY RZ
   axis XYZ
   position 0 0 0  
   orientation 0 0 0 
:bonedata
  begin
     id 1 
     name lhipjoint
     direction 0.611804 -0.747784 0.257906 
     length 2.29243 
     axis 0 0 0  XYZ
  end
  begin
     id 2 
     name lfemur
     direction 0.34202 -0.939693 0  
     length 7.31159  
     axis 0 0 20  XYZ
    dof rx ry rz
    limits (-160.0 20.0)
           (-70.0 70.0)
           (-60.0 70.0)
  end
  begin
     id 3 
     name ltibia
     direction 0.34202 -0.939693 0   
     length 7.33391   
     axis 0 0 20   XYZ
    dof rx
    limits (-10.0 170.0)
  end
  begin
     id 4 
     name lfoot
     direction 0.122263 -0.335914 0.933924   
     length 1.76083   
     axis -90 7.62852e-016 20   XYZ
    dof rx rz
    limits (-45.0 90.0)
           (-70.0 20.0)
  end
  begin
     id 5 
     name ltoes
     direction 1.53533e-011 -4.2177e-011 1   
     length 0.879206   
     axis -90 7.62852e-016 20   XYZ
    dof rx
    limits (-90.0 20.0)
  end
  begin
     id 6 
     name rhipjoint
     direction -0.646469 -0.721248 0.248754   
     length 2.37677  
     axis 0 0 0  XYZ 
  end
  begin
     id 7 
     name rfemur
     direction -0.34202 -0.939693 0   
     length 7.18623   
     axis 0 0 -20   XYZ
    dof rx ry rz
    limits (-160.0 20.0)
           (-70.0 70.0)
           (-70.0 60.0)
  end
  begin
     id 8 
     name rtibia
     direction -0.34202 -0.939693 0   
     length 7.36567   
     axis 0 0 -20   XYZ
    dof rx
    limits (-10.0 170.0)
 end
 begin
     id 9 
     name rfoot
     direction -0.126681 -0.348054 0.928876   
     length 1.71902  
     axis -90 -7.62852e-016 -20   XYZ
    dof rx rz
    limits (-45.0 90.0)
           (-20.0 70.0)
  end
  begin
     id 10 
     name rtoes
     direction -1.53551e-011 -4.21898e-011 1   
     length 0.857792   
     axis -90 -7.62852e-016 -20   XYZ
    dof rx
    limits (-90.0 20.0)
  end
  begin
     id 11 
     name lowerback
     direction 0.0106509 0.999778 0.0181844   
     length 2.07668   
     axis 0 0 0   XYZ
    dof rx ry rz
    limits (-20.0 45.0)
           (-30.0 30.0)
           (-30.0 30.0)
  end
  begin
     id 12 
     name upperback
     direction -0.00456018 0.999989 -0.000590935   
     length 2.08011   
     axis 0 0 0   XYZ
    dof rx ry rz
    limits (-20.0 45.0)
           (-30.0 30.0)
           (-30.0 30.0)
  end
  begin
     id 13 
     name thorax
     direction -0.00910382 0.999916 -0.00923765   
     length 2.07397   
     axis 0 0 0   XYZ
    dof rx ry rz
    limits (-20.0 45.0)
           (-30.0 30.0)
           (-30.0 30.0)
  end
  begin
     id 14 
     name lowerneck
     direction 0.00171967 0.99778 0.0665733   
     length 1.67556   
     axis 0 0 0   XYZ
    dof rx ry rz
    limits (-20.0 45.0)
           (-30.0 30.0)
           (-30.0 30.0)
  end
  begin
     id 15 
     name upperneck
     direction -0.0143166 0.991302 -0.130828   
     length 1.68462   
     axis 0 0 0   XYZ
    dof rx ry rz
    limits (-20.0 45.0)
           (-30.0 30.0)
           (-30.0 30.0)
  end
  begin
     id 16
     name head
     direction -0.00606378 0.998665 -0.0512995  
     length 1.69269  
     axis 0 0 0   XYZ
    dof rx ry rz
    limits (-20.0 45.0)
           (-30.0 30.0)
           (-30.0 30.0)
  end
  begin
     id 17 
     name lclavicle
     direction 0.9638 0.179341 0.197297  
     length 4.12888  
     axis 0 0 0   XYZ
    dof ry rz
    limits (-20.0 10.0)
           (0.0 20.0)
  end
  begin
     id 18 
     name lhumerus
     direction 1 -4.48972e-011 -2.47351e-027   
     length 5.01834   
     axis -180 -30 -90   XYZ
    dof rx ry rz
    limits (-60.0 90.0)
           (-90.0 90.0)
           (-90.0 90.0)
  end
  begin
     id 19
     name lradius
     direction 1 -4.48965e-011 1.51591e-026   
     length 3.4869   
     axis -180 -30 -90   XYZ
    dof rx
    limits (-10.0 170.0)
  end
  begin
     id 20
     name lwrist
     direction 1 -4.48957e-011 2.70032e-026   
     length 1.74345   
     axis -1.81515e-014 90 90   XYZ
    dof ry
    limits (-180.0 0.0)
 end
  begin
     id 21 
     name lhand
     direction 1 -4.48951e-011 5.40064e-026   
     length 0.76799   
     axis -3.44607e-014 90 90   XYZ
    dof rx rz
    limits (-90.0 90.0)
           (-45.0 45.0)
  end
  begin
     id 22 
     name lfingers
     direction 1 -4.48971e-011 1.08013e-025   
     length 0.619174   
     axis -6.89214e-014 90 90   XYZ
    dof rx
    limits (0.0 90.0)
  end
  begin
     id 23
     name lthumb
     direction 0.707107 -6.34931e-011 0.707107   
     length 0.889013   
     axis -90 45 2.85299e-015   XYZ
    dof rx rz
    limits (-45.0 45.0)
           (-45.0 45.0)
  end
  begin
     id 24 
     name rclavicle
     direction -0.961409 0.252588 0.109054   
     length 4.04305  
     axis 0 0 0   XYZ 
    dof ry rz
    limits (-10.0 20.0)
           (-20.0 0.0)
  end
  begin
     id 25 
     name rhumerus
     direction -1 -4.4897e-011 1.33872e-017  
     length 4.70164   
     axis -180 30 90   XYZ
    dof rx ry rz
    limits (-90.0 60.0)
           (-90.0 90.0)
           (-90.0 90.0)
  end
  begin
     id 26 
     name rradius
     direction -1 -4.48954e-011 1.83844e-026   
     length 3.49911   
     axis -180 30 90   XYZ
    dof rx
    limits (-10.0 170.0)
  end
  begin
     id 27 
     name rwrist
     direction -1 -4.49008e-011 2.70032e-026   
     length 1.74955   
     axis -1.81515e-014 -90 -90   XYZ
    dof ry
    limits (-180.0 0.0)
  end
  begin
     id 28
     name rhand
     direction -1 -4.48916e-011 5.40064e-026   
     length 0.739335   
     axis -3.44607e-014 -90 -90   XYZ
    dof rx rz
    limits (-90.0 90.0)
           (-45.0 45.0)
  end
  begin
     id 29
     name rfingers
     direction -1 -4.48987e-011 1.08013e-025   
     length 0.596071   
     axis -6.89214e-014 -90 -90   XYZ
    dof rx
    limits (0.0 90.0)
  end
  begin
     id 30
     name rthumb
     direction -0.707107 -6.34935e-011 0.707107   
     length 0.855843   
     axis -90 -45 -2.85299e-015   XYZ
    dof rx rz
    limits (-45.0 45.0)
           (-45.0 45.0)
  end
:hierarchy
  begin
    root lhipjoint rhipjoint lowerback
    lhipjoint lfemur
    lfemur ltibia
    ltibia lfoot
    lfoot ltoes
    rhipjoint rfemur
    rfemur rtibia
    rtibia rfoot
    rfoot rtoes
    lowerback upperback
    upperback thorax
    thorax lowerneck lclavicle rclavicle
    lowerneck upperneck
    upperneck head
    lclavicle lhumerus
    lhumerus lradius
    lradius lwrist
    lwrist lhand lthumb
    lhand lfingers
    rclavicle rhumerus
    rhumerus rradius
    rradius rwrist
    rwrist rhand rthumb
    rhand rfingers
  end

#!OML:ASF I:\salsa\salsa 7_09\Patient 1\Session 1\dancermale.ASF
:FULLY-SPECIFIED
:DEGREES
211
root -5.9401 17.06 0.504406 274.498 92.5361 268.937
lowerback -6.12317 3.59251 0.221865
upperback 1.34911 4.87477 -1.81062
thorax 5.00646 2.45322 -1.4901
lowerneck -1.90544 -3.69791 -5.04262
upperneck 10.6123 -4.87455 3.34658
head 4.0652 -2.41072 1.8125
rclavicle 3.08893e-014 -2.12203e-014
rhumerus -44.2766 22.2719 -112.961
rradius 92.0369
rwrist 7.63822
rhand -24.5133 6.04207
rfingers 7.12502
rthumb 1.98162 -23.9285
lclavicle 3.08893e-014 -2.12203e-014
lhumerus -47.4357 -29.0494 101.017
lradius 109.145
lwrist 16.7979
lhand -17.4847 46.6113
lfingers 7.12502
lthumb 8.76761 76.4092
rfemur -13.0629 -7.27241 13.3166
rtibia 67.4002
rfoot 7.60032 1.60493
rtoes 7.65557
lfemur -22.786 -0.305978 -26.3873
ltibia 31.2133
lfoot -18.5116 6.39731
ltoes 3.01097
212
root -5.77289 17.0228 0.453131 287.757 92.5357 282.246
lowerback -6.17056 3.64408 0.744011
upperback 1.58515 4.91612 -1.95857
thorax 5.34035 2.49463 -1.91614
lowerneck -1.76754 -3.93819 -5.43528
upperneck 10.4301 -5.22303 3.76756
head 4.02455 -2.58334 2.01305
rclavicle -4.40246e-014 5.31749e-015
rhumerus -44.8766 20.816 -112.16
rradius 91.7562
rwrist 8.30249
rhand -25.0519 6.18378
rfingers 7.12502
rthumb 1.46145 -23.791
lclavicle -4.40246e-014 5.31749e-015
lhumerus -45.1792 -30.0959 101.404
lradius 109.201
lwrist 16.6983
lhand -17.2436 46.3364
lfingers 7.12502
lthumb 9.0003 76.1244
rfemur -15.5049 -7.56919 13.6329
rtibia 70.56
rfoot 4.92099 1.14242
rtoes 6.33439
lfemur -22.7835 -0.619791 -26.6216
ltibia 32.5247
lfoot -19.6873 6.50026
ltoes 2.45212
213
root -5.61953 16.9796 0.392562 296.886 92.531 290.995
lowerback -6.48036 3.77077 1.41587
upperback 1.65358 5.0405 -2.11907
thorax 5.66898 2.58305 -2.418
lowerneck -1.73452 -4.24104 -5.67364
upperneck 10.3193 -5.64353 4.01675
head 4.02371 -2.7917 2.12237
rclavicle 1.7375e-014 -1.49089e-016
rhumerus -45.5453 19.4707 -111.26
rradius 91.4416
rwrist 8.62503
rhand -25.7517 6.17272
rfingers 7.12502
rthumb 0.785551 -23.8056
lclavicle 1.7375e-014 -1.49089e-016
lhumerus -43.0526 -30.9959 102.06
lradius 109.203
lwrist 16.9244
lhand -17.5028 46.5338
lfingers 7.12502
lthumb 8.75014 76.3324
rfemur -18.7256 -7.76101 13.9823
rtibia 73.4393
rfoot 2.78532 1.02985
rtoes 5.81955
lfemur -23.3385 -0.818364 -26.8428
ltibia 33.8009
lfoot -20.5982 6.74098
ltoes 1.21516
214
root -5.4445 16.9534 0.367098 316.709 93.1202 311.164
lowerback -6.23055 3.60825 1.53918
upperback 1.88884 4.82126 -2.14628
thorax 5.77444 2.48388 -2.54924
lowerneck -1.73433 -4.5379 -5.74942
upperneck 10.368 -6.05252 4.1635
head 4.0758 -2.9903 2.16684
rclavicle -2.2326e-014 -1.92821e-014
rhumerus -46.3636 18.0488 -110.326
rradius 91.1307
rwrist 8.93895
rhand -26.3591 5.86489
rfingers 7.12502
rthumb 0.19895 -24.1148
lclavicle -2.2326e-014 -1.92821e-014
lhumerus -41.2378 -31.9164 102.905
lradius 109.189
lwrist 17.2878
lhand -17.9581 46.674
lfingers 7.12502
lthumb 8.31079 76.4905
rfemur -20.3678 -8.47542 14.2957
rtibia 74.9927
rfoot 0.572596 0.793203
rtoes 4.76745
lfemur -22.6989 -1.04458 -26.9865
ltibia 34.6069
lfoot -21.555 6.51357
ltoes -0.429666
215
root -5.26966 16.9296 0.341199 327.304 94.0376 322.121
lowerback -5.93043 3.38117 1.5224
upperback 2.11709 4.53185 -2.22087
thorax 5.83068 2.3468 -2.66269
lowerneck -1.75347 -4.76052 -5.83552
upperneck 10.3322 -6.3671 4.37122
head 4.10026 -3.14098 2.23813
rclavicle -4.08378e-014 -5.36719e-015
rhumerus -47.3168 16.695 -109.423
rradius 91.0819
rwrist 9.24085
rhand -26.7993 5.42948
rfingers 7.12502
rthumb -0.226264 -24.5501
lclavicle -4.08378e-014 -5.36719e-015
lhumerus -39.5202 -32.692 103.722
lradius 109.152
lwrist 17.6606
lhand -18.295 46.4824
lfingers 7.12502
lthumb 7.98565 76.3115
rfemur -21.9503 -9.30877 14.3903
rtibia 76.0361
rfoot -2.11421 0.444965
rtoes 2.0797
lfemur -21.9257 -1.17177 -27.2883
ltibia 35.2046
lfoot -22.5518 6.11192
ltoes -1.42753
216
root -5.09387 16.9085 0.31858 332.743 95.0191 327.813
lowerback -5.6836 3.13489 1.46122
upperback 2.25994 4.22309 -2.36325
thorax 5.82735 2.19905 -2.82231
lowerneck -1.71535 -4.8957 -5.81071
upperneck 10.2269 -6.57758 4.64092
head 4.08062 -3.23427 2.31691
rclavicle -2.26366e-014 -6.75868e-015
rhumerus -48.3971 15.2161 -108.633
rradius 91.1092
rwrist 9.62215
rhand -27.3487 5.29568
rfingers 7.12502
rthumb -0.75685 -24.6827
lclavicle -2.26366e-014 -6.75868e-015
lhumerus -38.1426 -33.4747 104.608
lradius 109.134
lwrist 18.1685
lhand -18.5436 46.204
lfingers 7.12502
lthumb 7.74567 76.0421
rfemur -23.6577 -10.1724 14.3975
rtibia 76.6004
rfoot -5.01165 -0.413151
rtoes -0.686375
lfemur -21.163 -1.21895 -27.617
ltibia 35.6245
lfoot -23.4407 5.60516
ltoes -2.20132
217
root -4.91996 16.8913 0.300554 336.969 95.8606 332.021
lowerback -5.65587 2.93021 1.56603
upperback 2.28005 3.95469 -2.54205
thorax 5.83618 2.07617 -3.09924
lowerneck -1.73372 -4.99129 -5.87826
upperneck 10.2049 -6.73866 5.02272
head 4.11013 -3.30108 2.45307
rclavicle 6.58474e-015 4.37326e-015
rhumerus -49.4402 13.7386 -107.983
rradius 91.014
rwrist 9.66694
rhand -27.9538 5.27458
rfingers 7.12502
rthumb -1.34126 -24.701
lclavicle 6.58474e-015 4.37326e-015
lhumerus -37.1111 -34.3507 105.525
lradius 109.159
lwrist 18.7662
lhand -18.7632 46.1352
lfingers 7.12502
lthumb 7.53373 75.9811
rfemur -25.6564 -10.885 14.5672
rtibia 76.7039
rfoot -7.48143 -1.874
rtoes -0.839822
lfemur -20.7127 -1.14037 -27.7439
ltibia 36.0074
lfoot -24.163 5.15238
ltoes -3.36598
218
root -4.74645 16.8823 0.285903 339.751 96.569 334.725
lowerback -5.63734 2.75931 1.74151
upperback 2.2852 3.72719 -2.74413
thorax 5.84148 1.97666 -3.43596
lowerneck -1.88007 -5.08485 -5.58363
upperneck 10.1801 -6.87079 4.97136
head 4.12037 -3.35595 2.3714
rclavicle 6.01324e-014 -3.33958e-014
rhumerus -50.3941 12.6024 -107.379
rradius 90.971
rwrist 9.59403
rhand -28.158 5.05721
rfingers 7.12502
rthumb -1.53849 -24.917
lclavicle 6.01324e-014 -3.33958e-014
lhumerus -36.1704 -35.1973 106.443
lradius 109.063
lwrist 19.3327
lhand -18.9606 46.2631
lfingers 7.12502
lthumb 7.34319 76.1157
rfemur -27.6761 -11.404 14.7554
rtibia 76.2465
rfoot -9.42253 -3.72478
rtoes 0.142115
lfemur -20.2166 -1.27867 -27.8128
ltibia 36.1289
lfoot -24.6806 4.83236
ltoes -3.68916
219
root -4.5704 16.884 0.273047 341.132 97.1051 336.154
lowerback -5.43791 2.60179 1.88969
upperback 2.30463 3.52079 -2.93472
thorax 5.75465 1.88596 -3.75069
lowerneck -2.20463 -5.14361 -5.32366
upperneck 10.6798 -6.9878 5.14594
head 3.91629 -3.3723 2.13696
rclavicle -5.81445e-015 -2.24627e-014
rhumerus -51.3756 11.6384 -106.658
rradius 91.005
rwrist 10.1767
rhand -27.9529 5.1324
rfingers 7.12502
rthumb -1.34046 -24.8431
lclavicle -5.81445e-015 -2.24627e-014
lhumerus -35.4157 -35.9261 107.359
lradius 108.848
lwrist 19.9124
lhand -18.9709 46.3104
lfingers 7.12502
lthumb 7.3332 76.1633
rfemur -29.4697 -11.7005 14.8537
rtibia 75.1568
rfoot -10.9673 -5.58882
rtoes 0.784447
lfemur -19.2948 -1.91322 -27.9273
ltibia 35.8144
lfoot -24.9828 5.12035
ltoes -3.79818
220
root -4.39134 16.8948 0.260187 342.057 97.4422 337.158
lowerback -5.18253 2.45563 2.06195
upperback 2.28053 3.32526 -3.09941
thorax 5.58832 1.79865 -4.05285
lowerneck -2.56293 -5.0815 -4.9292
upperneck 11.0267 -6.91552 5.07944
head 4.06088 -3.31421 2.0448
rclavicle 1.94312e-014 -1.63003e-014
rhumerus -52.4017 10.7459 -105.879
rradius 91.0746
rwrist 10.5109
rhand -27.5408 5.79625
rfingers 7.12502
rthumb -0.942396 -24.1814
lclavicle 1.94312e-014 -1.63003e-014
lhumerus -34.8889 -36.5827 108.203
lradius 108.557
lwrist 20.5322
lhand -18.8144 46.2059
lfingers 7.12502
lthumb 7.48431 76.0535
rfemur -31.0668 -11.7724 14.9238
rtibia 73.4773
rfoot -12.224 -7.14698
rtoes 1.21792
lfemur -18.1691 -2.46993 -28.0092
ltibia 35.2684
lfoot -25.1973 5.85785
ltoes -5.38742
221
root -4.21218 16.9134 0.249887 342.218 97.6496 337.29
lowerback -4.98272 2.31413 2.11262
upperback 2.19936 3.14067 -3.2287
thorax 5.38319 1.70894 -4.24555
lowerneck -2.97138 -5.01699 -4.4827
upperneck 11.4503 -6.82869 4.84228
head 4.22984 -3.25291 1.89129
rclavicle 2.77802e-014 3.18055e-015
rhumerus -53.375 10.0925 -105.106
rradius 91.1309
rwrist 10.4008
rhand -27.0094 6.08563
rfingers 7.12502
rthumb -0.429201 -23.8937
lclavicle 2.77802e-014 3.18055e-015
lhumerus -34.4803 -37.2433 109.053
lradius 108.142
lwrist 21.2254
lhand -18.9273 46.0471
lfingers 7.12502
lthumb 7.37529 75.8985
rfemur -32.5936 -11.6609 14.8868
rtibia 71.221
rfoot -13.2697 -8.2437
rtoes 1.50969
lfemur -17.0983 -2.71399 -28.113
ltibia 34.5647
lfoot -25.3879 6.4194
ltoes -6.82469
222
root -4.03564 16.9359 0.24503 342.285 97.9537 337.139
lowerback -4.86556 2.10937 2.0046
upperback 2.03655 2.8775 -3.32846
thorax 5.12061 1.57098 -4.32216
lowerneck -3.41538 -4.89127 -4.2173
upperneck 11.84 -6.64336 4.55646
head 4.39562 -3.15439 1.75695
rclavicle 2.29596e-014 1.70955e-014
rhumerus -54.2593 9.62061 -104.349
rradius 91.0919
rwrist 10.5952
rhand -26.8761 5.96402
rfingers 7.12502
rthumb -0.300417 -24.0155
lclavicle 2.29596e-014 1.70955e-014
lhumerus -34.3066 -37.8773 109.97
lradius 107.685
lwrist 21.9673
lhand -19.2981 45.8822
lfingers 7.12502
lthumb 7.01737 75.7459
rfemur -34.0915 -11.5895 14.7427
rtibia 68.3423
rfoot -14.1005 -8.87881
rtoes 2.08259
lfemur -16.2317 -3.10852 -28.2542
ltibia 33.8307
lfoot -25.6421 6.7184
ltoes -7.00281
